<svg xmlns="http://www.w3.org/2000/svg" xmlns:xlink="http://www.w3.org/1999/xlink" width="400" zoomAndPan="magnify" viewBox="0 0 300 299.999988" height="400" preserveAspectRatio="xMidYMid meet" version="1.2"><g id="a1ecd3bedd"><path style=" stroke:none;fill-rule:nonzero;fill:#e10000;fill-opacity:1;" d="M 199.800781 18.523438 C 200.851562 24.300781 201.898438 26.25 206.25 30.300781 C 209.773438 33.523438 212.175781 34.949219 217.949219 37.199219 C 225.449219 40.050781 229.5 42.898438 231.449219 46.574219 C 232.574219 48.824219 232.800781 52.351562 231.898438 53.699219 C 230.925781 55.125 228 56.324219 226.5 55.875 C 225.75 55.648438 224.398438 55.875 223.574219 56.398438 C 222.300781 57.148438 221.699219 57.148438 220.5 56.398438 C 219.601562 55.875 218.550781 55.726562 218.023438 56.023438 C 216.675781 56.851562 209.023438 57 208.050781 56.175781 C 207.523438 55.726562 206.476562 55.726562 205.425781 56.101562 C 204.449219 56.476562 202.949219 56.550781 202.125 56.25 C 201.300781 55.949219 199.574219 55.875 198.300781 56.023438 C 196.648438 56.324219 195.523438 56.023438 194.550781 54.976562 C 193.800781 54.226562 191.324219 52.125 189.148438 50.324219 C 186.074219 47.773438 185.023438 46.351562 184.351562 43.800781 C 183.824219 41.925781 183.074219 40.574219 182.625 40.726562 C 182.25 40.875 181.199219 42.976562 180.375 45.375 C 179.550781 47.773438 178.425781 49.875 177.898438 50.101562 C 175.5 50.851562 170.699219 45.898438 169.125 40.949219 C 168.449219 38.625 167.324219 40.5 166.199219 45.75 C 165.675781 48.375 164.925781 50.625 164.476562 50.773438 C 164.023438 50.925781 163.125 50.175781 162.449219 49.125 C 161.398438 47.476562 160.800781 47.324219 158.398438 47.699219 C 156.148438 48.074219 155.324219 47.851562 154.199219 46.574219 C 153.226562 45.523438 151.875 45 149.925781 45 C 148.351562 45 146.925781 44.699219 146.699219 44.324219 C 146.023438 43.199219 134.175781 42.601562 129.148438 43.425781 C 122.851562 44.398438 117.074219 47.175781 112.726562 51.226562 C 110.773438 53.023438 107.625 55.351562 105.824219 56.25 C 103.125 57.601562 102.75 58.050781 103.648438 58.574219 C 105.300781 59.476562 108.375 58.273438 111.601562 55.351562 C 116.175781 51.449219 119.550781 50.25 127.125 50.25 C 137.625 50.25 138.976562 52.351562 129.523438 53.851562 C 122.925781 54.898438 114.898438 58.648438 111.300781 62.398438 C 109.648438 64.050781 107.101562 66.074219 105.449219 66.898438 C 103.648438 67.800781 102.824219 68.625 103.273438 69.074219 C 104.324219 70.125 107.699219 68.625 112.125 65.25 C 116.699219 61.726562 118.5 60.976562 124.351562 60.300781 C 129.523438 59.773438 139.5 61.574219 141 63.449219 C 141.523438 63.976562 142.875 64.5 144 64.5 C 145.125 64.5 146.476562 65.023438 147 65.625 C 147.523438 66.226562 149.101562 66.75 150.449219 66.75 C 152.476562 66.75 153.226562 67.125 153.898438 68.699219 C 155.773438 72.824219 151.574219 74.625 145.050781 72.375 C 141 71.023438 138.976562 71.398438 138.601562 73.726562 C 138.300781 75.976562 133.050781 76.949219 127.800781 75.824219 C 125.175781 75.226562 122.925781 75.148438 120.824219 75.675781 C 116.925781 76.5 116.550781 76.875 117.75 78.375 C 119.101562 80.023438 117.75 81.375 113.023438 83.101562 C 110.175781 84.148438 107.925781 84.449219 104.773438 84.148438 C 101.175781 83.851562 99.523438 84.148438 95.398438 85.875 C 87.824219 89.101562 87 90.148438 91.5 90.976562 C 96.226562 91.949219 93.148438 97.5 87.824219 97.5 C 84.75 97.5 84 95.773438 84 88.574219 C 84 81.300781 85.726562 76.050781 90.074219 70.351562 C 95.699219 62.851562 98.324219 55.351562 98.175781 46.949219 C 98.175781 41.925781 96.449219 33.300781 95.625 33.75 C 95.25 33.976562 93.824219 36.300781 92.398438 39 C 88.949219 45.523438 86.625 47.851562 78.898438 52.125 C 61.800781 61.648438 49.351562 74.773438 38.773438 94.5 C 28.949219 112.726562 23.101562 136.351562 23.101562 157.5 C 23.175781 176.773438 26.398438 194.851562 32.699219 210.601562 C 42.675781 235.425781 62.175781 258.75 81.449219 268.875 L 85.125 270.898438 L 80.175781 266.101562 C 77.476562 263.476562 73.800781 259.5 71.925781 257.25 C 61.273438 244.273438 60.675781 241.273438 69.976562 247.050781 C 72.976562 248.925781 75.75 250.5 76.125 250.5 C 76.425781 250.5 74.851562 248.550781 72.523438 246.148438 C 67.875 241.273438 60.824219 230.851562 58.5 225.375 C 55.875 219.300781 56.625 219 62.773438 223.875 C 65.101562 225.675781 67.199219 227.101562 67.351562 226.875 C 67.5 226.726562 66.226562 224.851562 64.425781 222.601562 C 59.25 216.074219 52.199219 200.25 54.449219 200.25 C 54.675781 200.25 55.726562 200.925781 56.773438 201.75 C 57.898438 202.574219 58.875 203.101562 59.023438 202.949219 C 59.25 202.800781 58.199219 200.023438 56.699219 196.875 C 53.25 189.523438 51.75 183.675781 50.925781 174.375 C 49.726562 160.875 52.726562 146.476562 58.949219 135.226562 C 65.25 124.050781 69.675781 122.476562 64.574219 133.199219 C 55.574219 152.25 54.824219 178.351562 62.625 200.25 C 65.476562 208.199219 70.800781 218.023438 75.675781 224.398438 C 79.050781 228.898438 79.875 230.550781 80.324219 234 C 81 238.648438 83.625 244.050781 88.949219 251.625 L 92.625 256.875 L 93 252.375 C 93.375 247.949219 93.375 247.875 95.851562 247.648438 C 98.398438 247.425781 103.726562 249.675781 109.050781 253.351562 C 111.375 255 112.199219 256.273438 113.476562 260.25 C 115.5 266.398438 119.851562 270.976562 129.75 277.050781 C 133.648438 279.523438 137.625 282.148438 138.523438 282.976562 C 141.148438 285.300781 141.226562 284.175781 138.75 279.675781 C 134.851562 272.550781 136.050781 268.050781 142.273438 266.324219 C 146.476562 265.125 161.773438 265.351562 165.375 266.625 C 167.101562 267.226562 169.425781 268.949219 170.851562 270.675781 C 173.925781 274.351562 177.375 276.601562 182.476562 277.949219 C 186.148438 279 211.199219 280.648438 212.476562 279.976562 C 212.773438 279.75 211.125 278.476562 208.726562 277.050781 C 202.050781 273.074219 199.5 270 199.5 265.875 C 199.5 262.800781 199.875 262.050781 203.101562 258.898438 C 207.300781 254.699219 214.800781 250.574219 218.324219 250.425781 C 219.75 250.351562 222.898438 250.574219 225.449219 250.875 C 232.199219 251.699219 236.476562 250.125 247.875 242.625 C 253.273438 239.101562 257.851562 236.25 258.226562 236.25 C 258.523438 236.25 258.75 235.875 258.75 235.5 C 258.75 235.050781 256.425781 234.75 253.351562 234.75 C 242.023438 234.75 239.773438 229.875 244.949219 216.75 C 248.101562 208.875 248.851562 207.824219 252.976562 205.199219 C 257.699219 202.199219 262.574219 197.023438 264.75 192.824219 C 266.625 189 268.648438 179.550781 268.351562 175.726562 L 268.125 172.875 L 266.625 174.449219 C 264.300781 176.925781 260.625 178.5 257.324219 178.5 C 253.726562 178.5 251.398438 176.101562 249.074219 169.875 C 247.125 164.625 247.125 162.675781 249.074219 157.125 C 251.023438 151.648438 250.648438 146.25 248.023438 139.726562 C 247.050781 137.324219 245.773438 133.800781 245.25 131.773438 C 244.648438 129.824219 243.976562 128.25 243.675781 128.25 C 243.375 128.25 243 129.523438 242.773438 131.023438 C 242.476562 132.601562 241.726562 134.625 241.125 135.523438 C 239.398438 138 234.074219 137.925781 229.726562 135.375 C 226.199219 133.273438 224.699219 130.949219 223.875 126.375 C 223.574219 124.726562 222.824219 122.476562 222.300781 121.425781 C 221.25 119.398438 213.226562 111.75 212.101562 111.75 C 211.800781 111.75 211.5 112.726562 211.5 113.925781 C 211.5 115.125 210.976562 116.699219 210.300781 117.300781 C 207.523438 120.074219 197.699219 117.75 194.476562 113.476562 C 193.425781 112.050781 191.476562 110.398438 190.273438 109.726562 C 187.574219 108.375 180.75 106.273438 180.300781 106.726562 C 180.074219 106.875 180.375 107.925781 180.824219 109.050781 C 181.648438 110.773438 181.574219 111.226562 180.523438 112.351562 C 178.5 114.300781 171.375 114 167.699219 111.75 C 165.449219 110.398438 163.726562 109.949219 160.199219 109.949219 C 154.425781 109.949219 153.148438 110.625 154.949219 112.574219 C 158.398438 116.398438 153.074219 120 144.226562 119.851562 C 140.101562 119.699219 138.449219 120.074219 135.449219 121.574219 L 131.851562 123.449219 L 133.800781 124.726562 C 134.851562 125.476562 135.75 126.523438 135.75 127.050781 C 135.75 128.699219 129.898438 133.5 127.949219 133.5 C 125.851562 133.5 120.523438 137.175781 118.800781 139.949219 C 117.675781 141.601562 117.675781 141.976562 118.574219 142.574219 C 119.175781 142.949219 120.074219 143.25 120.601562 143.25 C 123.074219 143.25 120.449219 151.425781 117.148438 153.601562 C 115.273438 154.875 111.75 161.324219 111.75 163.648438 C 111.75 164.625 112.351562 165 113.625 165 C 114.976562 165 115.726562 165.523438 116.25 166.949219 C 117.300781 169.648438 117.148438 174.074219 115.875 176.25 C 115.273438 177.375 114.824219 180.226562 114.75 183.226562 C 114.75 187.949219 114.824219 188.175781 116.175781 187.425781 C 119.25 185.476562 122.625 189.675781 123.375 196.425781 C 123.75 200.398438 126.449219 207 127.648438 207 C 127.949219 207 128.398438 206.625 128.625 206.25 C 129.898438 204.148438 136.726562 207.148438 137.699219 210.226562 C 138.449219 212.699219 141.523438 216.601562 143.25 217.125 C 144.148438 217.425781 145.199219 217.125 145.949219 216.449219 C 147.375 215.023438 150.300781 215.476562 153 217.574219 C 154.050781 218.398438 156.375 219.75 158.25 220.648438 L 161.550781 222.226562 L 162.601562 220.574219 C 163.875 218.699219 166.5 218.550781 172.125 220.050781 C 176.476562 221.175781 177.75 220.949219 177.75 218.851562 C 177.75 217.875 178.648438 217.050781 180.601562 216.300781 C 192.226562 211.574219 198.976562 205.949219 203.550781 196.949219 C 205.199219 193.726562 206.773438 191.023438 207.074219 190.800781 C 207.375 190.648438 208.648438 191.398438 210 192.449219 C 211.273438 193.574219 212.550781 194.175781 212.851562 193.949219 C 214.273438 192.523438 215.699219 181.273438 215.175781 175.351562 C 214.425781 167.25 212.851562 162.675781 208.726562 156.898438 C 199.273438 143.625 180.601562 137.25 165.523438 142.199219 C 161.550781 143.550781 154.351562 149.625 152.476562 153.300781 C 151.425781 155.324219 151.800781 155.175781 155.550781 151.726562 C 160.800781 146.925781 163.875 145.949219 172.875 146.476562 C 183.601562 147 191.324219 151.726562 195.523438 160.351562 C 197.324219 164.101562 197.550781 165.449219 197.550781 171.75 C 197.550781 177.300781 197.175781 179.699219 195.898438 182.851562 L 194.25 186.824219 L 196.5 187.273438 C 199.875 187.875 199.351562 189.976562 194.625 194.699219 C 181.726562 207.601562 161.101562 206.925781 147.300781 193.199219 C 142.351562 188.25 139.199219 182.398438 138 176.175781 C 134.550781 157.949219 143.023438 143.101562 160.273438 137.175781 C 164.773438 135.601562 166.726562 135.375 177 135.375 C 187.351562 135.375 189.148438 135.601562 193.5 137.101562 C 201.148438 139.875 208.425781 144.523438 213.75 150 C 223.050781 159.601562 227.324219 169.425781 227.851562 182.324219 C 228.449219 197.773438 224.476562 209.023438 214.949219 218.625 C 202.351562 231.375 187.050781 238.125 168.898438 239.023438 C 161.175781 239.398438 160.199219 239.324219 158.324219 237.976562 C 156.824219 236.851562 154.800781 236.324219 150.75 236.175781 C 143.398438 235.800781 137.773438 233.175781 137.25 229.875 C 136.800781 227.476562 135.226562 226.726562 130.199219 226.574219 C 128.175781 226.5 126.300781 225.75 123.675781 223.800781 C 119.851562 221.023438 119.175781 219.375 121.199219 217.875 C 122.25 217.125 121.949219 216.675781 118.949219 213.976562 C 117 212.25 114.375 210.675781 112.875 210.449219 C 110.925781 210.074219 109.726562 209.101562 108 206.625 C 105.300781 202.726562 104.925781 198.75 107.25 198.75 C 109.199219 198.75 109.125 197.699219 106.875 193.800781 C 105.75 191.851562 103.648438 189.75 101.625 188.550781 C 98.699219 186.898438 98.101562 186.074219 97.125 182.699219 C 95.699219 177.824219 96.226562 176.25 99.074219 176.25 C 101.625 176.25 101.699219 175.648438 100.199219 169.351562 C 99.675781 167.023438 98.324219 164.023438 97.199219 162.75 C 95.625 160.800781 95.25 159.601562 95.25 156.300781 C 95.25 151.5 96.75 148.125 99.074219 147.523438 C 100.875 147.074219 103.5 148.125 103.5 149.25 C 103.5 149.699219 103.800781 150 104.175781 150 C 105.300781 150 106.425781 139.875 105.601562 136.726562 C 104.023438 130.648438 104.023438 128.773438 105.898438 126 C 108.675781 121.949219 113.550781 122.101562 114.148438 126.226562 C 114.375 127.574219 114.824219 127.199219 117.300781 123.898438 C 120.75 119.175781 122.175781 115.5 122.25 111.300781 C 122.25 106.273438 127.648438 102.898438 130.199219 106.273438 C 131.101562 107.550781 131.25 107.550781 133.273438 106.050781 C 134.398438 105.226562 136.199219 102.898438 137.25 100.949219 C 139.273438 97.199219 141.75 95.925781 144.074219 97.425781 C 145.949219 98.550781 145.875 98.625 149.25 95.550781 C 152.101562 93 152.550781 92.851562 155.925781 93.226562 C 157.949219 93.449219 162.976562 95.25 167.175781 97.125 C 180.824219 103.351562 186 104.25 211.949219 105 C 233.773438 105.523438 240.523438 105.226562 243.675781 103.574219 C 244.5 103.125 246 102.75 246.976562 102.75 C 249.226562 102.75 263.625 108.898438 265.574219 110.699219 C 266.324219 111.375 267 111.675781 267 111.226562 C 267 110.773438 265.125 108.675781 262.800781 106.5 C 260.550781 104.324219 258.824219 102.449219 259.050781 102.226562 C 259.800781 101.476562 264.074219 102.976562 266.925781 105.074219 C 271.050781 108 270.824219 106.726562 266.550781 102.523438 C 261.226562 97.199219 263.925781 96.226562 270.601562 101.023438 C 271.875 102 273 102.675781 273 102.449219 C 273 101.175781 267 95.625 263.101562 93.300781 L 258.523438 90.523438 L 259.050781 85.351562 L 259.5 80.101562 L 257.25 82.425781 C 254.175781 85.425781 247.800781 87.226562 245.550781 85.648438 C 245.175781 85.351562 244.351562 84 243.824219 82.648438 C 243.226562 81.375 242.625 80.25 242.324219 80.25 C 242.023438 80.25 241.199219 81.375 240.449219 82.800781 C 237.976562 87.523438 232.648438 87.226562 230.773438 82.351562 C 229.574219 79.425781 228 78.976562 228 81.675781 C 228 84.074219 225.523438 85.5 221.476562 85.5 C 217.726562 85.5 217.648438 85.425781 216.449219 82.5 C 215.25 79.5 213.75 78.449219 213.75 80.625 C 213.75 82.648438 210.226562 85.5 207.824219 85.5 C 204.449219 85.5 203.324219 84.824219 202.125 82.050781 C 200.851562 78.898438 200.175781 78.898438 198.75 81.976562 C 197.699219 84.226562 197.324219 84.375 193.273438 84.601562 L 188.925781 84.824219 L 187.726562 81.824219 C 187.050781 80.101562 186.300781 78.75 186 78.75 C 185.773438 78.75 184.949219 79.949219 184.273438 81.375 C 182.699219 84.675781 180.148438 85.425781 176.175781 83.550781 C 170.324219 80.925781 168.226562 74.25 172.648438 72.226562 C 175.425781 70.875 176.773438 71.625 177.976562 75.226562 L 179.023438 78.375 L 180.226562 76.273438 C 180.898438 75.148438 182.023438 73.425781 182.625 72.375 C 183.449219 71.023438 184.425781 70.5 186.074219 70.5 C 189.375 70.5 191.023438 71.625 192 74.625 C 192.449219 76.050781 193.125 77.25 193.351562 77.25 C 193.648438 77.25 194.773438 75.75 195.898438 73.875 C 197.699219 70.949219 198.300781 70.5 200.476562 70.5 C 203.625 70.5 205.351562 71.773438 206.101562 74.550781 C 207 77.773438 208.125 77.699219 209.625 74.476562 C 211.273438 71.023438 211.949219 70.5 215.023438 70.5 C 217.800781 70.5 219.675781 72.074219 220.273438 75.148438 C 220.800781 77.925781 221.925781 77.550781 223.875 73.800781 C 225.074219 71.398438 225.824219 70.800781 227.851562 70.648438 C 231.300781 70.273438 233.851562 72.148438 234.449219 75.375 C 234.675781 76.800781 235.199219 78 235.5 78 C 235.875 78 236.851562 76.5 237.75 74.625 C 239.324219 71.398438 239.550781 71.25 242.550781 71.25 C 246.226562 71.25 247.800781 72.601562 248.625 76.273438 C 248.851562 77.625 249.375 78.75 249.675781 78.75 C 249.976562 78.75 250.949219 77.25 251.851562 75.375 C 253.351562 72.226562 253.648438 72 256.425781 72 C 260.023438 72 262.875 74.175781 263.550781 77.398438 L 264.074219 79.875 L 265.5 78.074219 C 266.625 76.800781 267.449219 76.425781 268.875 76.800781 C 270.75 77.25 274.800781 82.050781 275.625 84.824219 C 275.925781 85.574219 276.449219 86.25 276.898438 86.25 C 278.324219 86.25 276.75 75.675781 274.425781 69.824219 C 269.175781 56.773438 258.523438 45.675781 244.125 38.25 C 237.300781 34.800781 231.300781 32.851562 221.699219 31.125 C 218.101562 30.449219 213.675781 29.25 211.875 28.5 C 207.226562 26.476562 202.648438 22.125 201.601562 18.675781 C 200.476562 14.925781 199.199219 14.851562 199.800781 18.523438 Z M 174.898438 54.898438 C 178.425781 56.925781 178.648438 59.476562 175.351562 59.851562 C 172.875 60.148438 170.25 57.75 170.25 55.125 C 170.25 52.800781 171.074219 52.800781 174.898438 54.898438 Z M 187.574219 54.898438 C 189.675781 56.023438 190.5 57 190.5 58.273438 C 190.5 59.699219 190.125 60 188.25 60 C 185.476562 60 183 57.675781 183 55.125 C 183 52.800781 183.824219 52.800781 187.574219 54.898438 Z M 250.125 58.050781 C 252.75 59.175781 253.726562 61.5 251.625 61.5 C 249.898438 61.5 245.25 59.398438 245.25 58.648438 C 245.25 56.773438 246.675781 56.625 250.125 58.050781 Z M 250.125 58.050781 "/></g></svg>