<?xml version="1.0" standalone="no"?>
<!DOCTYPE svg PUBLIC "-//W3C//DTD SVG 20010904//EN"
 "http://www.w3.org/TR/2001/REC-SVG-20010904/DTD/svg10.dtd">
<svg version="1.0" xmlns="http://www.w3.org/2000/svg"
 width="400.000000pt" height="400.000000pt" viewBox="0 0 400.000000 400.000000"
 preserveAspectRatio="xMidYMid meet">

<g transform="translate(0.000000,400.000000) scale(0.100000,-0.100000)"
fill="#000000" stroke="none">
<path d="M1905 3705 c-5 -2 -67 -11 -136 -19 -182 -21 -323 -59 -473 -127
-293 -133 -444 -245 -676 -504 -87 -98 -240 -340 -240 -381 0 -6 -8 -22 -18
-35 -27 -36 -77 -243 -108 -448 -21 -141 -15 -463 12 -576 40 -174 96 -346
151 -467 20 -42 33 -58 47 -58 19 0 19 1 -1 22 -69 75 -114 228 -120 408 -6
164 33 318 90 354 44 28 115 -107 105 -199 -5 -38 -3 -45 12 -45 15 0 17 5 10
38 -25 108 -11 262 30 348 24 48 72 94 99 94 45 0 151 -146 151 -207 0 -18 4
-33 8 -33 5 0 8 22 8 48 -1 41 5 58 37 103 72 104 164 179 218 179 31 0 79
-39 79 -64 0 -34 -8 -37 -97 -38 l-78 -1 60 -12 c70 -14 115 -33 115 -50 0
-27 -27 -35 -120 -36 -146 -2 -161 -13 -37 -27 127 -14 147 -22 147 -61 0 -34
-5 -35 -175 -47 l-100 -7 110 -13 c136 -15 168 -26 163 -56 -3 -20 -13 -25
-68 -35 -36 -6 -99 -14 -140 -18 -169 -14 -317 -40 -335 -58 -7 -7 -4 -8 8 -4
37 14 449 29 502 19 37 -7 40 -10 43 -45 3 -34 1 -37 -22 -37 -13 0 -35 -4
-48 -9 -13 -5 -69 -18 -123 -30 -55 -12 -131 -30 -170 -42 -38 -11 -95 -27
-125 -35 -30 -8 -64 -19 -75 -24 -11 -5 -51 -21 -90 -35 -38 -14 -59 -23 -45
-20 14 3 63 14 110 24 96 22 264 45 451 62 150 14 164 9 172 -53 7 -52 5 -56
-41 -63 -39 -7 -235 -57 -316 -81 -26 -8 -54 -14 -61 -14 -7 0 -53 -12 -101
-26 -49 -15 -114 -32 -144 -39 -69 -16 -26 -19 75 -5 39 6 122 17 185 25 164
21 309 43 355 55 61 15 72 12 77 -14 3 -14 2 -29 -1 -34 -3 -5 -44 -23 -91
-41 -47 -18 -103 -41 -125 -51 -35 -16 -247 -108 -398 -172 -26 -12 -46 -22
-44 -24 5 -5 140 45 147 54 3 4 17 8 32 9 15 0 80 17 145 38 65 20 134 40 153
45 19 5 73 21 120 35 46 13 88 21 91 17 15 -15 14 -64 -1 -72 -8 -5 -70 -41
-138 -82 -68 -40 -131 -77 -140 -83 -79 -46 -254 -175 -238 -175 3 0 31 13 63
29 121 61 489 221 507 221 6 0 36 -67 36 -80 0 -5 -28 -30 -62 -57 -93 -73
-172 -156 -212 -223 -19 -33 -33 -60 -30 -60 3 0 29 20 57 44 61 50 270 193
288 195 4 1 12 -12 19 -29 12 -28 10 -32 -29 -78 -37 -45 -121 -174 -121 -187
0 -7 140 108 169 139 30 32 39 32 52 4 8 -18 5 -33 -15 -73 -14 -27 -23 -51
-21 -54 3 -2 21 11 41 30 l35 34 19 -23 c11 -13 16 -30 13 -37 -3 -10 1 -15
15 -15 10 0 34 -18 53 -40 69 -81 198 -152 334 -185 68 -16 193 -19 227 -6 13
5 48 17 78 26 150 46 369 176 515 308 23 20 47 37 54 37 6 0 11 7 11 16 0 14
9 16 63 11 58 -5 60 -5 20 5 -44 11 -60 38 -23 38 11 0 19 5 18 12 -2 7 10 14
26 17 17 3 28 11 25 16 -8 20 65 16 135 -7 47 -15 95 -23 142 -23 65 0 75 3
126 37 31 20 66 52 79 70 18 27 12 23 -33 -19 -67 -62 -119 -81 -181 -65 -23
5 -107 33 -187 61 -112 40 -153 50 -180 46 -36 -7 -40 -9 -125 -70 -105 -75
-93 -70 -116 -49 -21 19 -21 19 -19 -1 6 -52 -20 -67 -57 -33 l-24 23 11 -30
c9 -25 8 -31 -6 -42 -27 -20 -42 -16 -59 17 -21 40 -26 38 -19 -8 7 -42 -3
-56 -48 -67 -26 -7 -29 -3 -52 46 l-25 54 2 -67 c1 -37 -1 -69 -3 -72 -3 -2
-19 -6 -35 -8 l-30 -3 -7 89 c-13 147 -23 136 -54 -57 -6 -34 -10 -38 -33 -35
l-26 3 4 136 c2 93 0 139 -8 143 -6 4 -11 0 -11 -11 0 -23 -38 -190 -51 -221
-9 -22 -10 -22 -35 -5 -23 14 -25 22 -20 52 6 41 23 124 31 160 10 41 -16 10
-55 -66 -19 -37 -36 -70 -38 -72 -1 -2 -13 2 -27 9 -30 16 -31 30 -5 106 l20
59 -30 -35 c-16 -19 -30 -38 -30 -42 0 -17 -30 -7 -40 13 -11 20 -9 41 6 86 6
15 4 16 -7 5 -7 -6 -18 -12 -24 -12 -20 0 -65 174 -77 294 -12 112 -11 115 14
178 35 84 72 196 98 293 33 123 40 137 64 131 12 -2 37 -8 57 -11 45 -8 78
-43 186 -190 113 -156 109 -145 65 -192 -27 -28 -41 -55 -50 -93 -7 -29 -11
-55 -9 -56 2 -2 14 19 27 47 25 53 65 89 97 89 10 0 33 -22 53 -50 39 -57 90
-93 114 -84 9 4 24 21 34 38 14 25 17 60 18 191 l1 160 70 180 c84 216 87 225
74 225 -35 0 -108 -102 -125 -175 -35 -152 -63 -182 -52 -56 4 43 13 102 21
132 34 137 43 167 59 204 l17 39 -26 -24 c-49 -45 -115 -156 -124 -206 -5 -27
-7 -107 -4 -179 5 -134 -1 -148 -28 -65 -9 30 -14 91 -14 178 0 149 -2 150
-58 28 -31 -70 -30 -112 5 -209 11 -32 18 -61 14 -64 -4 -4 -33 21 -66 54 -33
33 -93 86 -134 118 l-75 57 -68 -3 -68 -4 3 50 c1 28 15 100 31 160 16 61 44
184 61 275 36 190 43 202 157 311 89 84 156 119 231 119 98 0 141 -17 208 -85
70 -69 104 -130 128 -230 10 -38 22 -86 27 -106 23 -90 5 -243 -56 -474 -56
-210 -4 -328 162 -372 77 -20 123 -12 190 32 30 20 53 38 51 40 -2 2 -23 -3
-47 -11 -53 -18 -85 -15 -89 8 -2 12 9 25 33 39 41 24 36 36 -15 41 -50 4 -51
30 0 46 22 6 52 13 67 13 16 1 -6 7 -47 13 -58 8 -76 15 -78 28 -2 11 6 22 22
29 14 7 23 15 21 19 -3 4 7 8 21 8 14 0 30 4 36 10 6 6 -5 7 -36 1 -56 -10
-76 -4 -76 26 0 16 15 32 58 58 l57 36 -52 -6 -53 -6 0 34 c0 43 8 55 45 70
69 27 123 37 135 25 8 -8 14 -7 23 5 7 8 22 18 35 21 25 7 28 -5 12 -49 -9
-26 -7 -24 30 15 40 41 78 57 66 27 -18 -45 -15 -46 24 -7 45 45 50 48 67 31
7 -7 8 -22 1 -45 -17 -65 -4 -71 25 -11 23 46 33 57 53 57 29 0 30 -9 3 -61
l-21 -41 36 27 c20 15 36 31 36 36 0 13 24 11 45 -5 18 -13 17 -15 -14 -61
l-32 -47 42 36 c24 20 48 36 55 36 15 0 37 -27 30 -38 -3 -4 8 -7 23 -4 31 4
46 35 57 115 6 40 2 56 -24 109 -16 35 -38 92 -47 128 -50 188 -106 274 -253
389 -68 52 -85 53 -39 2 51 -56 112 -191 133 -292 20 -100 16 -119 -25 -119
-43 0 -138 26 -191 53 l-45 22 -12 110 c-7 61 -16 128 -22 150 -8 36 -9 32
-11 -45 -1 -47 -5 -110 -8 -140 -7 -53 -8 -55 -36 -53 -16 1 -34 7 -39 12 -6
6 -6 64 1 163 6 84 7 189 3 233 l-6 80 -7 -95 c-7 -98 -37 -249 -65 -332 -27
-77 -93 -88 -93 -14 1 17 8 58 16 91 74 293 105 478 103 621 l-1 99 -18 -130
c-35 -259 -109 -510 -149 -510 -9 0 -21 26 -33 70 -20 73 -17 102 23 245 5 19
14 55 18 80 5 25 21 98 35 163 14 64 25 132 25 150 -1 20 -3 25 -6 12 -30
-133 -119 -394 -150 -444 l-15 -24 -29 45 -29 44 24 60 c63 153 144 369 140
373 -3 3 -13 -4 -23 -15 -22 -22 -191 -302 -191 -315 0 -5 -7 -9 -16 -9 -18 0
-64 40 -64 56 0 10 55 120 140 279 48 89 47 91 -11 14 -22 -30 -81 -102 -132
-161 -76 -89 -97 -107 -121 -108 -26 0 -28 2 -23 33 3 17 19 82 37 142 53 184
59 209 56 213 -3 2 -7 -7 -11 -20 -14 -43 -95 -210 -132 -272 -47 -78 -72
-106 -95 -106 -17 0 -18 12 -19 168 -2 235 -12 261 -28 73 -7 -85 -17 -165
-22 -179 -5 -13 -9 -34 -9 -47 0 -23 -25 -45 -49 -45 -7 0 -11 49 -12 143 0
78 -6 183 -13 232 l-12 90 -6 -130 c-7 -139 -33 -327 -49 -358 -6 -10 -18 -17
-27 -15 -15 3 -17 20 -15 148 1 80 4 174 7 210 l5 65 -19 -85 c-11 -47 -29
-139 -42 -205 -20 -105 -26 -120 -44 -123 -32 -5 -46 22 -51 96 -7 109 46 286
121 402 54 83 102 108 178 91 62 -14 217 -71 224 -82 10 -17 24 -9 24 14 0 50
-18 58 -210 91 -85 15 -336 30 -355 21z m-325 -1025 c0 -28 -33 -133 -120
-385 -39 -112 -40 -120 -24 -132 30 -22 42 -15 49 30 24 156 65 307 107 390
32 63 43 43 40 -69 -5 -176 -13 -204 -90 -344 -49 -91 -54 -120 -44 -265 5
-78 5 -143 0 -163 -37 -134 -181 205 -207 488 -13 139 -1 226 39 285 46 67 82
69 61 2 -13 -39 -45 -310 -39 -328 2 -7 12 39 22 102 19 125 66 278 97 318 20
26 88 80 102 81 4 0 7 -4 7 -10z m1841 -420 c13 -36 29 -39 29 -6 0 31 8 36
38 25 58 -22 27 -68 -46 -69 -76 0 -129 43 -84 69 31 19 53 12 63 -19z m252
-8 c16 -18 22 -40 19 -75 -3 -33 -43 -16 -59 26 -24 59 2 91 40 49z"/>
<path d="M3422 1428 c-33 -16 -22 -32 28 -40 24 -4 68 -20 98 -34 42 -20 58
-35 69 -63 15 -36 14 -55 -12 -171 -3 -14 5 4 18 40 39 105 42 150 15 191 -46
67 -155 106 -216 77z"/>
<path d="M3556 1013 c-6 -14 -5 -15 5 -6 7 7 10 15 7 18 -3 3 -9 -2 -12 -12z"/>
<path d="M3526 958 l-17 -33 20 24 c18 20 27 41 18 41 -1 0 -11 -15 -21 -32z"/>
<path d="M2963 733 c9 -2 25 -2 35 0 9 3 1 5 -18 5 -19 0 -27 -2 -17 -5z"/>
</g>
</svg>
