<?xml version="1.0" standalone="no"?>
<!DOCTYPE svg PUBLIC "-//W3C//DTD SVG 20010904//EN"
 "http://www.w3.org/TR/2001/REC-SVG-20010904/DTD/svg10.dtd">
<svg version="1.0" xmlns="http://www.w3.org/2000/svg"
 width="400.000000pt" height="400.000000pt" viewBox="0 0 400.000000 400.000000"
 preserveAspectRatio="xMidYMid meet">

<g transform="translate(0.000000,400.000000) scale(0.100000,-0.100000)"
fill="#000000" stroke="none">
<path d="M1955 3749 c-434 -58 -746 -143 -995 -270 -134 -68 -198 -139 -125
-139 17 0 32 12 52 41 48 71 59 79 108 79 46 0 133 -28 194 -63 116 -67 315
-252 422 -392 219 -286 359 -613 359 -836 0 -122 -51 -362 -111 -527 -129
-352 -338 -585 -566 -633 -74 -15 -267 -6 -348 16 -343 92 -603 418 -701 875
-14 64 -18 127 -18 255 1 151 4 181 27 269 50 188 147 345 225 365 134 35 301
-99 463 -371 51 -86 59 -111 34 -102 -21 8 -20 -27 7 -159 22 -109 22 -110 4
-196 -33 -150 -33 -141 4 -141 40 0 91 24 108 51 12 18 11 19 -7 10 -70 -38
-84 97 -22 223 61 123 164 189 319 202 104 9 167 -1 178 -27 9 -19 10 -18 44
10 19 17 38 30 42 31 14 0 40 -111 36 -155 -2 -24 0 -41 3 -37 11 13 29 100
29 141 0 23 4 41 9 41 12 0 23 -81 16 -116 -3 -16 3 -6 14 22 50 135 29 288
-53 389 l-25 30 19 -65 c18 -59 18 -66 4 -77 -39 -29 -445 -28 -567 1 -82 20
-128 50 -256 170 -235 221 -349 271 -479 211 -144 -67 -243 -244 -287 -512
-19 -116 -19 -444 -1 -583 58 -426 169 -673 411 -915 248 -248 558 -387 898
-402 141 -7 199 4 312 58 309 148 647 607 750 1018 37 150 47 301 30 456 -29
272 -61 328 -345 620 -162 166 -219 235 -256 305 -24 47 -26 192 -2 235 45 83
160 156 257 163 60 4 210 -25 411 -79 70 -18 151 -33 207 -36 130 -8 146 9 98
102 -13 27 -23 51 -21 53 12 11 153 -131 187 -187 46 -76 49 -110 20 -220 -28
-106 -38 -106 -37 1 l1 93 -26 3 c-27 3 -27 3 -34 -87 -10 -123 -21 -121 -40
6 -8 50 -24 66 -58 58 -20 -5 -26 -14 -30 -48 -3 -23 -14 -47 -24 -55 -16 -12
-18 -10 -23 29 -5 41 -7 43 -60 60 -73 24 -130 24 -186 -2 -65 -31 -146 -109
-180 -173 -27 -52 -28 -56 -11 -74 24 -27 21 -35 -10 -27 -32 7 -73 32 -73 43
0 4 20 34 45 67 28 37 53 85 65 126 11 37 30 78 41 93 12 15 20 29 18 30 -17
15 -124 68 -164 82 -69 23 -164 24 -198 1 -40 -26 -77 -91 -84 -146 -12 -103
49 -181 267 -338 326 -237 396 -320 510 -608 63 -158 81 -241 81 -360 -1 -185
-40 -342 -160 -637 -62 -154 -79 -208 -64 -208 5 0 31 39 58 86 56 96 112 154
150 154 32 0 101 -62 121 -108 20 -48 18 -158 -5 -223 -50 -146 -142 -289
-303 -471 -79 -89 -78 -89 88 -18 514 218 902 608 1052 1055 67 203 92 360 92
578 -1 439 -145 821 -432 1146 -304 345 -795 605 -1260 666 -121 16 -152 17
-243 4z m-317 -1342 c5 -37 -25 -51 -80 -37 -43 11 -86 36 -77 45 12 12 116
32 134 25 11 -4 21 -18 23 -33z"/>
<path d="M2758 3139 c-29 -16 -21 -37 18 -48 51 -14 124 3 124 29 0 25 -108
39 -142 19z"/>
</g>
</svg>
